<?xml version="1.0" standalone="no"?>
<!DOCTYPE svg PUBLIC "-//W3C//DTD SVG 20010904//EN"
 "http://www.w3.org/TR/2001/REC-SVG-20010904/DTD/svg10.dtd">
<svg version="1.0" xmlns="http://www.w3.org/2000/svg"
 width="1000.000000pt" height="1000.000000pt" viewBox="0 0 1000.000000 1000.000000"
 preserveAspectRatio="xMidYMid meet">
<metadata>
Created by potrace 1.16, written by Peter Selinger 2001-2019
</metadata>
<g transform="translate(0.000000,1000.000000) scale(0.100000,-0.100000)"
fill="#000000" stroke="none">
<path d="M1332 7661 c-10 -6 66 -230 324 -955 l337 -947 -40 -56 c-62 -89 -79
-98 -181 -98 -48 0 -127 4 -175 9 -60 6 -95 6 -110 -2 -12 -6 -47 -16 -77 -22
-58 -11 -97 -35 -100 -60 -5 -33 1 -51 18 -57 9 -3 52 -19 95 -35 l77 -30 -43
-51 c-88 -104 -145 -206 -216 -385 -22 -54 -54 -122 -71 -152 -36 -61 -38 -54
42 -211 l48 -96 83 -17 c45 -9 172 -27 281 -41 110 -14 201 -27 203 -28 1 -2
-23 -12 -55 -21 -31 -10 -80 -29 -109 -42 l-52 -23 -3 -122 -3 -122 -70 -26
c-87 -32 -95 -38 -95 -61 0 -24 28 -40 69 -40 16 0 33 -4 36 -10 3 -5 -77
-144 -178 -307 -101 -164 -189 -307 -195 -319 -10 -18 -3 -29 61 -92 l72 -72
66 0 65 0 -1 -102 c0 -124 11 -156 64 -180 33 -16 75 -18 387 -18 l349 0 29
-55 c86 -165 248 -318 421 -396 124 -56 215 -74 375 -73 128 1 156 4 235 28
164 50 329 153 427 268 50 58 124 169 133 199 6 18 15 19 118 17 l112 -3 -3
-30 c-6 -76 -5 -92 12 -127 25 -53 42 -54 74 -7 l27 40 105 -6 c58 -3 175 -10
260 -15 532 -33 1830 -14 2125 31 227 35 248 41 265 74 8 17 17 68 20 115 5
69 10 93 30 119 l23 34 19 -68 c87 -318 346 -567 678 -651 110 -28 335 -26
445 4 266 73 483 252 601 497 71 147 88 223 88 405 -1 140 -3 164 -28 244 -33
110 -82 210 -146 298 -49 67 -52 78 -18 78 34 0 20 41 -28 85 -42 39 -45 45
-39 77 8 41 3 44 -77 54 -29 3 -96 26 -149 50 -167 75 -348 114 -529 114 -87
0 -211 -13 -252 -26 -12 -3 -22 4 -32 24 l-15 29 94 93 c90 90 96 93 150 101
31 4 67 14 80 23 38 25 76 100 112 220 31 101 33 114 23 165 -36 179 -106 290
-283 447 -225 200 -262 228 -344 262 -70 28 -90 43 -182 134 -172 171 -415
463 -775 936 -98 127 -181 232 -185 232 -26 0 -101 -131 -101 -176 0 -56 134
-349 287 -626 95 -173 128 -212 188 -227 55 -14 100 -54 89 -79 -33 -77 -47
-140 -54 -248 -4 -67 -13 -131 -20 -144 -12 -22 -177 -136 -186 -128 -8 9
-169 226 -179 243 -15 24 -76 34 -207 35 -129 0 -115 6 -179 -72 -21 -26 -28
-43 -24 -60 5 -21 -4 -28 -100 -76 -58 -29 -108 -59 -111 -67 -10 -24 4 -63
26 -75 16 -8 31 -6 66 10 56 24 64 25 64 5 0 -25 26 -28 82 -12 29 9 78 18
109 21 55 6 57 5 63 -20 5 -19 12 -25 29 -22 28 4 34 34 10 60 -17 19 -17 20
11 45 l29 24 29 -28 c17 -15 43 -44 59 -65 l29 -36 -77 -32 c-57 -24 -95 -33
-139 -34 -52 -1 -77 -9 -157 -49 -52 -26 -117 -64 -144 -85 -26 -21 -104 -65
-173 -98 -69 -34 -162 -86 -208 -116 -45 -31 -85 -52 -88 -47 -14 23 -79 3
-259 -81 -277 -128 -291 -130 -434 -66 -92 42 -146 52 -217 39 l-51 -10 13 26
c20 38 17 98 -6 132 -39 54 -237 172 -378 225 -110 42 -145 33 -336 -81 l-118
-72 -172 41 -171 41 -34 90 c-51 137 -50 144 6 180 27 17 57 46 68 67 19 36
19 40 4 99 l-16 61 46 20 c25 10 56 23 69 28 27 12 29 49 5 79 -14 16 -40 24
-120 36 -57 8 -115 15 -130 15 -100 0 -357 190 -467 345 -54 75 -106 122 -164
147 -63 28 -98 19 -166 -46 -59 -57 -76 -88 -76 -137 0 -41 -30 -72 -63 -64
-18 5 -31 1 -45 -13 -22 -22 23 -142 -618 1658 -34 96 -66 175 -70 177 -5 1
-15 -1 -22 -6z m7063 -3993 c75 -88 128 -207 141 -317 6 -52 4 -65 -12 -82
-20 -23 -84 -62 -124 -77 l-25 -10 0 87 c-1 96 -19 162 -64 233 -26 42 -28 48
-20 107 16 113 43 129 104 59z m-840 -633 c39 -68 111 -132 191 -171 66 -32
73 -38 93 -85 27 -65 28 -109 3 -109 -85 0 -251 80 -334 161 -54 53 -58 60
-58 103 0 46 18 94 48 129 22 25 27 22 57 -28z m892 -1 c32 -9 35 -30 12 -77
-31 -60 -164 -189 -228 -221 -49 -25 -58 -27 -98 -16 -58 14 -90 36 -109 72
-9 17 -14 31 -12 32 2 0 28 10 58 20 75 25 141 68 195 128 53 59 114 80 182
62z"/>
</g>
</svg>
